PathFileType	4	(X/Y/Z)	C:/Users/opensim2020/Desktop/walking_exp_matlab/subject03_walking15_straight_04.trc	
DataRate	CameraRate	NumFrames	NumMarkers	Units	OrigDataRate	OrigDataStartFrame	OrigNumFrames	
100.00	100.00	7	47	mm	100.00	2321	182	
Frame#	Time	LFHD			RFHD			LBHD			RBHD			C7			T10			CLAV			STRN			RBAK			LSHO			LUPA			LELB			LFRM			LWRA			LWRB			LFIN			RSHO			RUPA			RELB			RFRM			RWRA			RWRB			RFIN			LASI			RASI			LPSI			RPSI			LTHI			LKNE			LTIB			LANK			LHEE			LTOE			RTHI			RKNE			RTIB			RANK			RHEE			RTOE			*39			*40			*41			*42			*43			*44			*45			*46			
		X1	Y1	Z1	X2	Y2	Z2	X3	Y3	Z3	X4	Y4	Z4	X5	Y5	Z5	X6	Y6	Z6	X7	Y7	Z7	X8	Y8	Z8	X9	Y9	Z9	X10	Y10	Z10	X11	Y11	Z11	X12	Y12	Z12	X13	Y13	Z13	X14	Y14	Z14	X15	Y15	Z15	X16	Y16	Z16	X17	Y17	Z17	X18	Y18	Z18	X19	Y19	Z19	X20	Y20	Z20	X21	Y21	Z21	X22	Y22	Z22	X23	Y23	Z23	X24	Y24	Z24	X25	Y25	Z25	X26	Y26	Z26	X27	Y27	Z27	X28	Y28	Z28	X29	Y29	Z29	X30	Y30	Z30	X31	Y31	Z31	X32	Y32	Z32	X33	Y33	Z33	X34	Y34	Z34	X35	Y35	Z35	X36	Y36	Z36	X37	Y37	Z37	X38	Y38	Z38	X39	Y39	Z39	X40	Y40	Z40	X41	Y41	Z41	X42	Y42	Z42	X43	Y43	Z43	X44	Y44	Z44	X45	Y45	Z45	X46	Y46	Z46	X47	Y47	Z47	

160	1.590	-918.80750	-868.90326	1593.73657	-1050.55017	-869.09082	1612.58020	-929.38934	-739.57257	1554.37622	-1058.22668	-745.48688	1572.12170	-995.78192	-711.22504	1392.72986	-991.87415	-702.60999	1076.50122	-1002.67688	-836.80157	1325.56860	-1003.84747	-895.39575	1165.60840	-1088.96472	-667.29852	1210.27271	-843.60773	-797.40985	1357.06787	-776.11841	-778.54370	1157.16101	-766.77283	-765.87250	1034.25244	-764.87085	-757.42438	903.18762	-790.00330	-731.91614	783.11127	-734.14868	-725.99927	796.16968	-743.42755	-682.90704	716.70459	-1159.96753	-779.83746	1346.27319	-1236.11646	-816.63104	1129.01086	-1249.39929	-858.07196	1024.65112	-1245.44275	-925.05090	905.91852	-1209.07166	-994.29785	838.61890	-1244.34802	-963.35065	813.01849	-1239.28345	-1020.09595	768.81384	-903.35925	-893.72308	925.21033	-1136.04529	-851.77728	920.53113	-921.79193	-725.18494	938.69098	-1070.03235	-701.13556	947.96381	-857.28064	-918.91339	631.78815	-908.63574	-987.36328	474.64590	-900.02264	-977.11206	273.34842	-937.86169	-983.28479	64.83040	-968.47089	-938.86426	31.23309	-975.19861	-1131.12256	32.28142	-1171.89343	-762.48993	626.54962	-1149.27429	-752.64624	445.14169	-1130.62915	-611.15717	307.51013	-1064.12781	-474.74533	144.25336	-1007.01709	-430.67896	150.42198	-1036.22058	-564.54529	28.69463	-966.97833	-787.83569	1661.03442																					 
161	1.600	-918.45050	-880.07794	1594.28638	-1050.16357	-880.05676	1613.02197	-928.93317	-750.69470	1554.84827	-1057.82031	-756.52002	1572.55176	-995.40454	-722.80621	1393.11780	-991.64063	-714.69818	1076.75439	-1002.10889	-848.51373	1326.22534	-1003.15564	-907.60248	1166.44177	-1088.27820	-679.27557	1210.50623	-843.22504	-809.08813	1358.24146	-775.24530	-790.87738	1158.48413	-766.25812	-778.59894	1035.36560	-764.72406	-770.91162	904.39563	-789.98590	-745.48950	784.24982	-733.99969	-740.45294	797.12994	-742.46289	-699.00403	717.04626	-1159.42114	-791.61438	1346.66479	-1234.70862	-827.77673	1128.92664	-1248.12024	-868.65009	1024.21936	-1245.11755	-933.18488	903.89221	-1209.38135	-1000.90106	834.59155	-1244.91736	-969.22583	810.20892	-1240.41736	-1024.77869	764.29437	-903.22131	-906.74316	927.03888	-1134.26575	-865.94592	921.41382	-921.74896	-737.83679	940.02551	-1069.88135	-713.75171	947.82526	-857.47253	-932.72632	633.10809	-909.53119	-1001.57751	475.39774	-899.73267	-984.88666	274.23975	-937.81232	-983.73138	65.23316	-968.05750	-939.19055	31.44558	-974.66510	-1131.69592	31.77452	-1174.03088	-779.39996	625.42078	-1153.97168	-773.27222	443.94711	-1134.07373	-628.16943	310.92078	-1066.63770	-487.84753	151.87184	-1008.74304	-445.69025	161.76291	-1036.49402	-566.66644	28.89731	-966.55835	-798.82684	1661.58093																					 
162	1.610	-918.03186	-890.98157	1594.87585	-1049.82642	-890.92780	1613.33899	-928.48236	-761.75934	1555.07825	-1057.75220	-767.63684	1572.87439	-995.07953	-734.26691	1393.35913	-991.20837	-726.50867	1076.99316	-1001.62811	-860.20490	1326.75159	-1002.59198	-919.70386	1167.12146	-1088.10046	-691.04785	1210.91052	-843.08533	-820.51556	1359.37708	-774.37402	-802.86951	1159.80664	-765.67987	-791.54828	1036.49121	-764.54272	-784.91956	905.50470	-789.88617	-759.91846	785.36511	-733.85358	-755.47211	798.02863	-741.72443	-716.14246	717.14459	-1158.86218	-803.24878	1347.15918	-1233.44958	-838.92407	1129.06604	-1247.02429	-878.99023	1023.97101	-1244.84009	-940.95288	902.09686	-1209.50574	-1006.99274	830.38959	-1245.67615	-974.91119	807.54395	-1241.51685	-1028.79407	759.84314	-902.92072	-919.36847	928.67126	-1133.69824	-877.99182	921.66846	-921.63715	-750.05872	941.18420	-1069.68237	-725.97717	947.60114	-857.62805	-947.32538	634.37964	-909.65338	-1013.00745	475.27557	-899.74585	-991.38867	274.23404	-937.90363	-984.01605	65.59732	-967.80853	-939.19464	31.46625	-975.31158	-1131.90820	31.45175	-1176.14160	-796.58716	624.19116	-1157.81763	-794.66071	442.77548	-1138.14465	-646.40967	314.25684	-1069.98792	-502.90808	158.78462	-1011.76630	-462.54248	172.74022	-1037.54944	-569.18719	29.13317	-964.92761	-809.06696	1662.13721																					 
163	1.620	-917.74530	-901.88879	1595.02539	-1049.44141	-901.70276	1613.70496	-928.20575	-772.56744	1555.00415	-1057.20630	-778.43091	1572.80164	-994.18188	-745.74023	1393.29004	-990.75488	-738.26257	1077.22852	-1001.30908	-871.74109	1327.15356	-1002.17719	-931.51233	1167.66821	-1087.89587	-702.83002	1211.19641	-842.90179	-832.09320	1360.34290	-773.47021	-814.97662	1161.11792	-764.89972	-804.76251	1037.63391	-764.30109	-799.30505	906.55951	-789.89392	-775.11029	786.28870	-733.79608	-771.21045	798.76648	-741.15039	-734.32025	717.05756	-1158.42151	-814.73798	1347.68896	-1232.30212	-849.98309	1129.29150	-1245.78882	-889.30035	1023.87500	-1244.66919	-948.47089	900.46936	-1209.54968	-1012.47559	826.50525	-1246.56189	-980.14514	805.17334	-1242.53223	-1032.42627	755.51929	-902.55316	-931.64050	930.02338	-1133.06470	-889.93475	921.95044	-921.41656	-762.38422	942.05188	-1069.29578	-737.79877	947.12909	-857.58582	-961.49878	635.69171	-909.10803	-1022.53619	474.67642	-899.91541	-996.79205	273.74094	-938.05676	-984.15082	65.62574	-967.76495	-939.14728	31.55106	-975.47418	-1132.07239	31.21032	-1177.92847	-813.78210	622.89001	-1160.91675	-816.96204	441.06021	-1140.67798	-666.90009	316.57077	-1073.44690	-520.24255	164.78578	-1016.09625	-480.56830	183.65439	-1038.42444	-572.70282	30.59984	-965.70343	-820.42004	1661.96716																					 
164	1.630	-917.39752	-912.54608	1595.38477	-1049.08447	-912.41058	1614.12061	-927.95764	-783.39581	1554.89807	-1056.96924	-789.26282	1572.80383	-993.88428	-756.75079	1393.26453	-990.20062	-750.01428	1077.44666	-1001.05792	-883.05884	1327.50195	-1002.01141	-943.07135	1168.12048	-1088.01392	-714.31500	1211.55627	-842.79279	-843.56519	1361.15820	-772.61017	-827.06146	1162.16809	-764.06696	-818.02972	1038.52466	-763.97321	-814.02264	907.34784	-789.90271	-790.94641	786.96271	-733.67267	-787.55261	799.24249	-740.80194	-753.27551	716.65979	-1158.18286	-825.93982	1348.26440	-1231.45386	-860.94641	1129.56982	-1244.81665	-899.37531	1023.68451	-1244.59888	-955.73883	898.90179	-1209.84387	-1017.76599	822.73016	-1247.45764	-985.05457	802.86786	-1243.36804	-1035.63647	751.17950	-902.23236	-943.58167	931.10382	-1132.62354	-901.53564	922.09662	-921.04321	-774.33234	942.61536	-1068.77747	-749.33972	946.59070	-856.99377	-974.14221	636.95245	-908.36145	-1030.55579	473.50797	-899.92914	-1001.30530	273.14218	-938.10303	-984.55682	65.83762	-967.68170	-939.13275	31.64895	-975.77362	-1132.19971	31.03709	-1179.01917	-830.79901	621.33246	-1162.89380	-839.32251	439.70898	-1143.46899	-689.25513	317.43607	-1076.92542	-538.39417	170.47693	-1020.53223	-499.23993	193.78932	-1040.30493	-580.21326	34.41198	-961.67963	-831.80048	1663.06384																					 
165	1.640	-917.06982	-923.17542	1595.71155	-1048.77026	-923.03235	1614.59668	-927.82880	-794.06982	1554.84180	-1056.77734	-800.04401	1572.93909	-994.06769	-767.36810	1393.38318	-989.60425	-761.76611	1077.61206	-1000.96863	-894.20361	1327.85742	-1002.02734	-954.30090	1168.48071	-1088.02295	-725.62830	1211.89124	-842.77814	-854.90344	1361.62292	-771.87573	-839.09161	1162.92480	-763.19427	-831.27930	1039.12708	-763.49194	-829.18481	907.97321	-789.77118	-807.42090	787.40942	-733.60938	-804.28772	799.47113	-740.44495	-773.27747	716.12482	-1157.77954	-837.08435	1348.54932	-1230.78369	-871.70270	1129.70850	-1244.19446	-909.17548	1023.37323	-1244.61108	-962.84033	897.29749	-1210.15381	-1022.83960	818.99384	-1248.64368	-989.93475	800.77551	-1244.00574	-1038.51648	746.78357	-902.05566	-955.36383	931.88007	-1132.50049	-912.78235	922.04761	-920.49756	-786.32007	942.97327	-1068.08032	-760.59247	945.83502	-856.40814	-983.97473	637.36371	-907.63385	-1038.22559	472.12830	-899.86273	-1005.53552	272.72043	-938.30945	-984.86707	65.87939	-967.71973	-939.14624	31.81333	-976.07184	-1132.29907	30.87083	-1179.94495	-847.42621	620.09210	-1164.78735	-861.39148	438.80643	-1146.36926	-713.39435	316.46658	-1079.57178	-556.70789	176.56242	-1023.29480	-517.73499	202.05133	-1044.22314	-592.62732	39.80923	-964.80994	-841.25470	1662.25537																					 
166	1.650	-916.64691	-933.72620	1596.32788	-1048.40747	-933.64240	1615.13306	-927.74170	-804.64313	1554.91089	-1056.62585	-810.77777	1573.15735	-993.81940	-778.27814	1393.52393	-988.99164	-773.18823	1077.75940	-1000.94489	-905.08105	1328.20093	-1002.12811	-965.41266	1168.81433	-1088.14209	-736.59198	1212.26831	-842.69281	-866.16571	1362.03870	-771.16052	-851.44147	1163.48755	-762.19586	-845.14166	1039.64282	-762.99860	-844.55640	908.34247	-789.57123	-824.10040	787.70239	-733.35388	-821.54980	799.49420	-740.19360	-793.92676	715.37756	-1157.62170	-847.89087	1348.86096	-1230.34631	-882.23090	1129.77490	-1243.60046	-918.82922	1022.94452	-1244.75989	-969.67328	895.67212	-1210.59485	-1027.53882	815.33099	-1249.72998	-994.57794	798.53259	-1244.78369	-1041.25269	742.65009	-902.02429	-966.84924	932.37537	-1132.59680	-923.62250	921.89160	-919.83307	-797.82672	943.27783	-1067.36450	-771.59216	944.96887	-855.95282	-991.77478	636.72778	-907.18359	-1045.41614	470.76480	-899.79333	-1009.82513	272.35403	-938.34619	-985.26050	65.94788	-967.69647	-939.16223	31.98342	-976.39020	-1132.40234	30.72973	-1180.50708	-863.46875	619.34039	-1166.62183	-883.63782	438.28461	-1150.08923	-736.87469	316.07980	-1081.55615	-575.28888	183.20985	-1024.19983	-536.47382	208.14336	-1049.85852	-610.21307	45.50894	-961.09662	-852.47803	1663.39001																					 
